<?xml version="1.0" standalone="no"?><!DOCTYPE svg PUBLIC "-//W3C//DTD SVG 1.1//EN" "http://www.w3.org/Graphics/SVG/1.1/DTD/svg11.dtd"><svg t="1547519816205" class="icon" style="" viewBox="0 0 1024 1024" version="1.1" xmlns="http://www.w3.org/2000/svg" p-id="1996" xmlns:xlink="http://www.w3.org/1999/xlink" width="200" height="200"><defs><style type="text/css"></style></defs><path d="M931.083286 452.28906 591.528799 101.976556c-21.101597-21.747303-49.296753-33.726126-79.520101-33.726126-30.241768 0-58.4359 11.978822-79.537498 33.726126L92.915691 452.28906c-35.035958 36.150338-30.528294 67.396993-24.728194 80.453357 4.130064 9.267061 18.065448 34.731012 58.221006 34.731012l49.762357 0 0 269.464151c0 61.201897 44.321438 118.811989 107.319238 118.811989l57.125045 0 87.421049 0 0-63.321164L428.036191 670.553109c0-30.583552-4.669346-47.625694 26.847461-47.625694l57.125045 0L569.115324 622.927415c31.516808 0 26.847461 17.042141 26.847461 47.625694l0 221.875297 0 63.321164 87.421049 0 57.126069 0c62.997799 0 107.336634-57.611116 107.336634-118.811989L847.846536 567.473429l49.762357 0c40.137139 0 54.089919-25.464975 58.20361-34.731012C961.612603 519.686053 966.120266 488.439398 931.083286 452.28906z" p-id="1997"></path></svg>