<?xml version="1.0" standalone="no"?><!DOCTYPE svg PUBLIC "-//W3C//DTD SVG 1.1//EN" "http://www.w3.org/Graphics/SVG/1.1/DTD/svg11.dtd"><svg t="1547524889214" class="icon" style="" viewBox="0 0 1707 1024" version="1.1" xmlns="http://www.w3.org/2000/svg" p-id="6599" xmlns:xlink="http://www.w3.org/1999/xlink" width="333.3984375" height="200"><defs><style type="text/css"></style></defs><path d="M496.4356 44.505433c-26.753266 0-44.505433 17.752167-44.505433 44.505433v845.978268c0 26.753266 17.752167 44.505433 44.505433 44.505433H1208.897571c26.753266 0 44.505433-17.752167 44.505432-44.505433V89.135881c0-26.753266-17.752167-44.505433-44.505432-44.505433H496.4356z m0-44.505433H1208.897571c49.005982 0 89.010866 40.129899 89.010865 89.010866v845.978268c0 49.005982-40.129899 89.010866-89.010865 89.010866H496.4356c-49.005982 0-89.010866-40.129899-89.010866-89.010866V89.135881c0-49.005982 40.004883-89.135881 89.010866-89.135881z m0 0" fill="#2c2c2c" p-id="6600"></path><path d="M696.835063 578.820657c0 13.376633-8.876084 22.252716-22.252717 22.252716-13.376633 0-22.252716-8.876084-22.252716-22.252716 0-120.264681 75.634233-244.904896 200.399463-244.904896 124.640215 0 191.523379 115.764131 191.523379 244.904896 0 13.376633-8.876084 22.252716-22.252716 22.252716-13.376633 0-22.252716-8.876084-22.252717-22.252716 0-106.888048-53.381516-200.399463-146.892931-200.399463-93.63643 0.125015-156.019045 102.512514-156.019045 200.399463z m0 0" fill="#2c2c2c" p-id="6601"></path><path d="M852.729093 378.546209c-62.382615 0-111.263582-49.005982-111.263582-111.263582 0-62.382615 49.005982-111.263582 111.263582-111.263582 62.382615 0 111.263582 49.005982 111.263582 111.263582s-49.005982 111.263582-111.263582 111.263582z m0-44.630448c35.629349 0 66.758149-31.1288 66.758149-66.758149s-31.1288-66.758149-66.758149-66.758149-66.758149 31.1288-66.758149 66.758149c-0.125015 35.629349 31.1288 66.758149 66.758149 66.758149zM563.193749 712.46197c-13.376633 0-22.252716-8.876084-22.252716-22.252716 0-13.376633 8.876084-22.252716 22.252716-22.252716H1097.633989c13.376633 0 22.252716 8.876084 22.252716 22.252716 0 13.376633-8.876084 22.252716-22.252716 22.252716H563.193749z m0 133.516299c-13.376633 0-22.252716-8.876084-22.252716-22.252717 0-13.376633 8.876084-22.252716 22.252716-22.252716H1097.633989c13.376633 0 22.252716 8.876084 22.252716 22.252716 0 13.376633-8.876084 22.252716-22.252716 22.252717H563.193749z m0 0" fill="#2c2c2c" p-id="6602"></path></svg>